<?xml version="1.0" encoding="utf-8"?>
<!-- Generator: Adobe Illustrator 21.0.0, SVG Export Plug-In . SVG Version: 6.00 Build 0)  -->
<!DOCTYPE svg PUBLIC "-//W3C//DTD SVG 1.1//EN" "http://www.w3.org/Graphics/SVG/1.1/DTD/svg11.dtd">
<svg version="1.1" id="Layer_1" xmlns="http://www.w3.org/2000/svg" xmlns:xlink="http://www.w3.org/1999/xlink" x="0px" y="0px"
	 viewBox="0 0 22 15" style="enable-background:new 0 0 22 15;" xml:space="preserve">
<style type="text/css">
	.st0{fill:#A0C3CC;}
</style>
<path class="st0" d="M0.3,0.2c4,0,7.4-0.1,11.3-0.1C15,0.1,18.3,0,21.6,0c-3.3,2.6-6.4,5.5-9.5,8.2c-0.2,0.2-0.7,0.9-1,1
	c-0.5,0.1-1.8-1.4-2.2-1.8C7.1,6,5.3,4.7,3.7,3.2C3,2.6,2.4,1.9,1.6,1.2C1.2,0.9,0.7,0.6,0.3,0.2"/>
<path class="st0" d="M1.8,14.8c0.7-0.7,1.4-1.4,2.2-2c0.7-0.5,1.4-1,2.1-1.5c0.4-0.3,0.8-0.7,1.2-1.1C7.4,10.1,7.7,9.7,8,9.7
	c0.1,0,0.5,0.3,0.7,0.4c0.3,0.2,0.7,0.6,1,0.8c0.6,0.3,1.2,0.7,1.9,0.4c0.8-0.5,1.5-1.1,2.2-1.7c0.3,0.2,0.7,0.4,1.1,0.5
	c0.4,0.3,0.8,0.6,1.2,1c0.7,0.5,1.3,1.1,2,1.6c0.6,0.5,1.1,1,1.7,1.5c0.3,0.2,0.5,0.4,0.7,0.7c-1,0.1-1.9,0.1-2.9,0
	c-1.2,0-2.4,0-3.6,0.1c-3.1,0.1-6.3,0.1-9.5,0c-0.6,0-1.1,0-1.7,0c-0.3,0-0.7,0-1,0"/>
<path class="st0" d="M0.3,2.9C0.1,3.9,0,4.9,0.1,6C0,7,0,8.1,0,9.2c0,1.6,0.1,3.4,0.1,5c0.5-0.4,0.9-0.8,1.3-1.3
	c0.3-0.4,0.6-0.7,0.9-1c0.7-0.7,1.5-1.3,2.1-2C4.9,9.4,6,8.7,6.3,8.2c-0.1-0.3-0.8-0.8-1-1C4.5,6.4,3.7,5.7,2.9,5
	c-0.5-0.4-1-0.9-1.5-1.4C1.1,3.4,0.9,3.2,0.6,2.9c-0.1,0-0.1-0.1-0.2-0.2C0.3,2.7,0.3,2.7,0.3,2.7"/>
<path class="st0" d="M21.7,2.9c0.2,1,0.2,2.1,0.2,3.1C22,7,22,8.1,22,9.2c0,1.6-0.1,3.4-0.1,5c-0.5-0.4-0.9-0.8-1.3-1.3
	c-0.3-0.4-0.6-0.7-0.9-1c-0.7-0.7-1.5-1.3-2.1-2c-0.5-0.5-1.5-1.2-1.8-1.7c0.1-0.3,0.8-0.8,1-1c0.8-0.8,1.6-1.4,2.4-2.1
	c0.5-0.4,1-0.9,1.5-1.4c0.2-0.2,0.5-0.5,0.7-0.7c0.1,0,0.1-0.1,0.2-0.2c0.1-0.1,0.1-0.1,0.1-0.1"/>
</svg>
