<svg xmlns="http://www.w3.org/2000/svg" width="30" height="30" fill="#a0c3cc"  xmlns:v="https://vecta.io/nano"><path d="M14.263 16.625a14.54 14.54 0 0 0-1.875-1.7L6.25 21.25 0 27.562l1.819 1.675L8.481 22.6c.788-.937 1.675-1.612 2.563-2.5l3.219-3.475m2.317 10.556a15.39 15.39 0 0 0 .131 2.756l9.563-.131 3.706-.062-.113-2.694c-1.3 0-2.912-.131-4.238 0s-2.5-.044-3.9-.044l-5.15.194"/><path d="M17.225 24.813a15.39 15.39 0 0 0 .131 2.756l9.563-.131a19.92 19.92 0 0 0 1.994-.062l-.112-2.694a20.05 20.05 0 0 0-2.5 0c-1.363.119-2.5-.044-3.894-.044l-5.156.194m-.862-11.351a2.82 2.82 0 0 0-.625.706l4.094 4.063.894.831c.475-.469.15-.206.575-.675a11.93 11.93 0 0 0-1.081-1.1c-.625-.538-1.081-1.119-1.675-1.713l-2.206-2.113m2.785.17c-.247.222-.458.481-.625.769l2.587 2.569.962.9c.506-.512.156-.225.625-.731l-1.144-1.25-2.381-2.281m2.32-.326a3.13 3.13 0 0 0-.625.713l1.688 1.662a11.59 11.59 0 0 0 .894.831 6.88 6.88 0 0 0 .575-.669L22.963 14.7l-1.469-1.4z"/><path fill-rule="evenodd" d="M15.601 2.856l1.088 1.169c1.486 1.666 4 4.117 6.431 6.487l2.725 2.67c.508.502.989.812 1.431 1.096.406.261.778.501 1.107.848l-.873.964c-2.302 2.543-4.913 5.429-7.383 7.505l-.694-.719c-.057-.057-.108-.288-.156-.503-.042-.189-.081-.365-.119-.403l-1.644-1.725c-.857-.908-1.744-1.638-2.457-2.225-.504-.415-.922-.759-1.181-1.044-.55-.616-1.114-1.28-1.69-1.956-1.274-1.498-2.6-3.058-3.936-4.294-.537-.499-1.075-.831-1.613-1.163-.52-.321-1.039-.642-1.556-1.112 2.25-2.475 5.631-6.069 8.019-8.45.586.444 1.104 1.119 1.595 1.758.309.403.608.792.905 1.099zm3.275 15.894a64.34 64.34 0 0 1 1.612 1.637c.971-.904 1.97-1.942 2.945-2.954l1.974-2.015c-.194-.221-.423-.47-.671-.741l-1.022-1.134c-2.175-2.412-5.194-5.656-7.694-8.081-.918-.907-1.884-1.765-2.894-2.569-.766.823-1.666 1.635-2.574 2.454-.989.892-1.985 1.792-2.826 2.721a8.75 8.75 0 0 1 2.431 2.156l.335.385c.336.387.662.763.977 1.078.786.786 1.954 1.883 3.239 3.091l4.167 3.972z"/></svg>