<svg xmlns="http://www.w3.org/2000/svg" width="38" height="31" fill="none" fill-rule="evenodd" xmlns:v="https://vecta.io/nano"><g stroke-width="2" fill="#fff"><path d="M13.56 24.008a1 1 0 0 0-.769 1.185l.503 2.38a1 1 0 0 0 1.187.771l7.044-1.505a1 1 0 0 0 .769-1.185l-.503-2.38a1 1 0 0 0-1.187-.771l-7.044 1.505z" stroke="#a0c3cc"/><path stroke="#c79291" stroke-linejoin="round" d="M3.883 27.027L19.936 1l13.766 19.764z"/></g><path d="M10.046 19.814l4.728 3.714m-1.522-9.348l9.483 7.72M17.257 8.546L30.433 19.66" stroke="#d9ebf3" stroke-width="4" stroke-linecap="round"/><g stroke="#a0c3cc"><path stroke-width="2" stroke-linejoin="round" d="M3.883 27.027L19.936 1l13.766 19.764z"/><path d="M4.045 23.82L6.62 27.5a1 1 0 0 1-.244 1.389l-.825.58a1 1 0 0 1-1.393-.241L1.58 25.544a1 1 0 0 1 .244-1.389l.825-.58a1 1 0 0 1 1.393.241z" fill="#a0c3cc"/></g><path d="M28.562 1.902l-.774 3.12m8.432 8.192l-3.15-.56m2.5-7.304l-3.93 2.768" stroke-width="2" stroke="#d9ebf3" stroke-linecap="round"/></svg>