<svg viewBox="0 0 41 41" fill="none" xmlns="http://www.w3.org/2000/svg">
    <rect width="41" height="41" rx="8" fill="#3B5998"/>
    <path d="M21.76 30.97c.007-.515.007-1.3.007-2.718 0-2.355-.186-5.05-.028-7.395 1.122-.06 2.185.019 3.306-.053-.312-1.284.062-2.587-.12-3.846-1.119-.112-2.215-.058-3.306-.083-.077-1.429-.34-2.612.812-3.616.84-.74 1.746-.622 2.977-.475-.026-1.139.092-2.628.092-3.708-2.008-.123-4.578-.275-6.203 1.121-1.772 1.534-2.116 4.087-2.015 6.464-.647.032-3.186-.247-3.178.042a31.41 31.41 0 00-.07 4.015c1.357.022 3.327.103 3.327.103-.175 1.036-.019 4.038-.057 5.134-.056 1.65-.137 3.142-.114 4.9.982.06 2.04.24 2.994.247.428 0 1.225-.06 1.596-.075" fill="#fff"/>
</svg>