<svg viewBox="0 0 41 41" fill="none" xmlns="http://www.w3.org/2000/svg">
    <rect width="41" height="41" rx="8" fill="#C92228"/>
    <path d="M15.932 20.57c-.235.275-.486 1.078-.736 1.451-.275.413-.526.229-.911-.173A8.207 8.207 0 0112 16.599a7.46 7.46 0 012.498-5.404 8.512 8.512 0 014.684-2.097 13.256 13.256 0 015.026.35 6.755 6.755 0 014.225 2.412c.41.686.756 1.41 1.032 2.16.298.728.463 1.503.487 2.289a7.664 7.664 0 01-1.638 5.656 8.769 8.769 0 01-2.019 1.877 7.853 7.853 0 01-3.172.717 3.687 3.687 0 01-3.401-.926c-.142.444-.244.9-.304 1.363-.181.67-.307 1.323-.54 1.98a11.28 11.28 0 01-1.742 3.125c-.165.202-.713.864-1.046.76-.55-.17.036-1.971.06-2.339 0-.973.053-1.945.159-2.912.185-1.02.66-1.965.907-2.972.352-1.273.504-2.593.452-3.913a6.303 6.303 0 01-.111-1.969c.146-.594.42-1.149.802-1.627a1.836 1.836 0 012.047-.891c.962.261 1.1 1.575 1.1 2.415a5.459 5.459 0 01-.793 2.597c-.307.452-.56.938-.757 1.449-.128.629.73 1.617 1.321 1.822.94.234 1.934.12 2.797-.32a6.856 6.856 0 002.38-2.672c.631-1.018.901-2.218.767-3.409a5.764 5.764 0 00-2.186-3.605 7.213 7.213 0 00-7.767-.22 6.308 6.308 0 00-2.74 4.487 4.09 4.09 0 00.855 3.311c.147.158.284.325.412.498a.93.93 0 01-.103-.125" fill="#fff"/>
</svg>