<svg viewBox="0 0 41 41" fill="none" xmlns="http://www.w3.org/2000/svg">
  <rect width="41" height="41" rx="8" fill="#6495A3"/>
  <path d="M10.332 13.22c3.895-.045 7.248-.08 11.088-.08 3.239 0 6.49-.166 9.705-.136-3.18 2.545-6.233 5.389-9.33 8.025-.231.199-.723.926-1 .952-.515.057-1.763-1.39-2.181-1.725-1.68-1.367-3.415-2.616-5.007-4.108-.667-.625-1.309-1.309-2.013-1.928a8.904 8.904 0 01-1.262-1zM11.755 27.44a15.908 15.908 0 012.105-1.936c.696-.49 1.403-.951 2.056-1.495.407-.34.798-.69 1.2-1.036.136-.123.45-.473.66-.472.136 0 .517.294.647.366.32.179.67.602 1.003.784.577.316 1.198.702 1.88.39a13.432 13.432 0 002.158-1.65c.335.2.684.373 1.045.52.422.289.82.61 1.194.961a34.805 34.805 0 011.91 1.608c.543.496 1.118.969 1.682 1.438.245.196.468.419.664.664-.945.135-1.904.135-2.85 0-1.181.045-2.368.026-3.552.07-3.073.113-6.193.098-9.261-.036a34.83 34.83 0 00-1.64-.034 3.147 3.147 0 00-.966.035M10.273 15.802a17.234 17.234 0 00-.204 3.029A61.014 61.014 0 0010 21.982c0 1.605.136 3.29.09 4.864.464-.379.898-.794 1.297-1.241.269-.348.57-.67.9-.96.698-.652 1.448-1.262 2.085-1.974.446-.5 1.476-1.134 1.803-1.693-.11-.299-.77-.777-.997-1.008-.74-.752-1.597-1.347-2.382-2.039-.492-.433-.985-.918-1.472-1.368-.237-.219-.449-.477-.71-.68-.063-.048-.128-.107-.195-.15-.135-.087-.107-.09-.108-.05M31.226 15.802c.157 1.002.225 2.015.204 3.029.054 1.046.069 2.105.069 3.151 0 1.605-.136 3.29-.09 4.864a11.315 11.315 0 01-1.297-1.241 6.89 6.89 0 00-.9-.96c-.698-.652-1.448-1.262-2.085-1.974-.446-.5-1.476-1.134-1.803-1.693.11-.299.77-.777.997-1.008.74-.752 1.597-1.347 2.382-2.039.492-.433.985-.918 1.472-1.368.237-.219.449-.477.71-.68.063-.048.128-.107.195-.15.136-.087.107-.09.108-.05" fill="#fff"/>
</svg>