<svg xmlns="http://www.w3.org/2000/svg" width="40" height="40" fill-rule="evenodd" xmlns:v="https://vecta.io/nano"><path d="M4.57 4.56C9.6-.48 17.7-.48 22.73 4.56c4.64 4.64 4.96 12.08.96 17.12l2.08 2.08.48-.48a1.5 1.5 0 0 1 2.08 0l2.48 2.48 5.52 5.44 2.48 2.4a1.5 1.5 0 0 1 0 2.08l-3.04 3.04a1.5 1.5 0 0 1-2.08 0L23.2 28.24a1.5 1.5 0 0 1 0-2.08l.48-.48-2.08-2.08c-5.04 4-12.4 3.68-17.12-.96C-.47 17.76-.47 9.6 4.57 4.56zM7.3 20a8.98 8.98 0 0 0 12.72 0 8.98 8.98 0 0 0 0-12.72 8.98 8.98 0 0 0-12.72 0 8.98 8.98 0 0 0 0 12.72z" fill="#6495a3" fill-rule="nonzero"/><path d="M13.952 6.33l2.103 4.045 4.505.72c.46.08.58.64.26.88l-3.204 3.244.7 4.505c.06.46-.44.76-.76.52l-4.085-2.042-4.065 2.062c-.42.2-.84-.18-.72-.56l.68-4.525-3.204-3.224c-.34-.34-.1-.86.3-.86l4.505-.76L13.05 6.29c.2-.42.78-.36.9.04z" fill="#e4965f"/></svg>