<svg xmlns="http://www.w3.org/2000/svg" viewBox="0 0 26 25"  xmlns:v="https://vecta.io/nano"><circle cx="12.5" cy="12.5" r="12.5" fill="#d9ebf3"/><path d="M9.6 13c-.7-.9-1-2.1-1-3.5 0-1.8.5-3.4 1.4-4.9s2.3-2.7 4.1-3.5l2.1 2c-1.3.4-2.4 1.1-3.2 2-.9.9-1.4 2-1.7 3l.2.1c.3-.2.8-.4 1.4-.4.7 0 1.3.3 1.9.8s.9 1.3.9 2.3c0 .9-.3 1.7-1 2.3-.6.7-1.4 1-2.3 1-1.2.1-2.1-.4-2.8-1.2zm9.4 0c-.7-.9-1-2.1-1-3.5 0-1.8.5-3.4 1.4-4.9s2.3-2.7 4.1-3.5l2.1 2c-1.3.4-2.4 1.1-3.2 2-.9.9-1.4 2-1.6 3l.2.1c.3-.2.8-.4 1.4-.4.7 0 1.3.3 1.9.8.5.6.7 1.4.7 2.4 0 .9-.3 1.7-1 2.3-.6.7-1.4 1-2.3 1-1.1 0-2-.5-2.7-1.3z" fill="#333" enable-background="new"/></svg>